<?xml version="1.0" encoding="UTF-8" standalone="no"?>
<!DOCTYPE svg PUBLIC "-//W3C//DTD SVG 1.1//EN" "http://www.w3.org/Graphics/SVG/1.1/DTD/svg11.dtd">
<svg version="1.1" xmlns="http://www.w3.org/2000/svg" xmlns:xlink="http://www.w3.org/1999/xlink" preserveAspectRatio="xMidYMid meet" viewBox="107.4034000000001 217.94080506761907 125.2826269553715 63.122000000000014" width="70" height="50"><defs><path d="M216.89 232.56L224.64 220.13L226.31 220.13L217.63 234.23L217.63 244.62L214.29 244.62L214.29 234.49C210.51 228.76 208.41 225.58 207.99 224.95C207.43 224.14 207 223.56 206.89 223.41C206.35 222.69 205.83 222.27 205.72 222.15C205.09 221.61 204.47 221.37 204.33 221.28C203.82 221.06 203.25 220.92 202.61 220.87L202.61 220.87L202.61 220.13C204.61 220.13 205.72 220.13 205.95 220.13C206.98 220.13 207.61 220.44 207.8 220.48C208.62 220.83 209.13 221.32 209.28 221.41C209.95 221.98 210.37 222.58 210.49 222.71C210.85 223.19 211.19 223.69 211.51 224.21L211.51 224.21L216.89 232.56Z" id="bgaL2oMuU"></path><path d="M229.02 241.09C229.87 241.09 230.3 241.62 230.45 241.68C230.83 242.08 231.03 242.55 231.03 243.09C231.03 243.09 231.03 243.09 231.03 243.09C231.03 243.95 230.49 244.39 230.43 244.54C230.03 244.93 229.56 245.13 229.02 245.13C229.02 245.13 229.02 245.13 229.02 245.13C228.21 245.13 227.75 244.6 227.61 244.54C227.21 244.14 227.02 243.66 227.02 243.09C227.02 243.09 227.02 243.09 227.02 243.09C227.02 242.28 227.55 241.82 227.61 241.68C228.01 241.28 228.48 241.09 229.02 241.09C229.02 241.09 229.02 241.09 229.02 241.09Z" id="b17jldPfRW"></path><path d="M210.81 266.47C210.81 272.39 210.81 275.68 210.81 276.34C211.66 276.6 212.39 276.69 212.57 276.73C213.17 276.81 213.76 276.86 214.33 276.86C214.33 276.86 214.33 276.86 214.33 276.86C217.71 276.86 219.02 275.65 219.54 275.52C220.76 274.62 221.38 273.34 221.38 271.66C221.38 271.66 221.38 271.66 221.38 271.66C221.38 269.14 219.77 268.18 219.6 267.8C218.41 266.91 216.65 266.47 214.33 266.47L214.33 266.47L210.81 266.47ZM214.33 264.98C215.44 264.98 216.28 264.7 216.5 264.67C217.56 264.35 218.2 263.81 218.39 263.72C219.23 263.09 219.61 262.31 219.75 262.16C220.09 261.54 220.27 260.81 220.27 259.97C220.27 259.97 220.27 259.97 220.27 259.97C220.27 258.64 219.7 257.92 219.64 257.69C219 256.75 218.2 256.28 218.04 256.13C217.08 255.52 216.1 255.33 215.89 255.24C215.09 255.06 214.33 254.97 213.59 254.97C213.59 254.97 213.59 254.97 213.59 254.97C212.88 254.97 212.26 255.07 212.12 255.08C211.61 255.15 211.17 255.24 210.81 255.34L210.81 255.34L210.81 264.98C212.92 264.98 214.09 264.98 214.33 264.98ZM213.77 253.67C215.22 253.67 216.66 253.85 216.98 253.87C218.74 254.08 219.92 254.67 220.25 254.76C221.75 255.45 222.51 256.53 222.77 256.73C223.45 257.58 223.79 258.72 223.79 260.16C223.79 260.16 223.79 260.16 223.79 260.16C223.79 261.83 222.75 262.95 222.64 263.26C221.87 264.21 220.65 264.97 218.97 265.54C218.97 265.54 218.97 265.54 218.97 265.54C220.79 265.84 221.65 266.29 221.95 266.37C223.12 266.91 223.64 267.54 223.83 267.67C224.53 268.43 224.71 269.23 224.81 269.4C224.99 270.04 225.09 270.73 225.09 271.48C225.09 271.48 225.09 271.48 225.09 271.48C225.09 273.55 224.23 274.53 224.14 274.87C223.2 276.19 221.97 276.7 221.73 276.91C220.27 277.63 218.77 277.79 218.45 277.89C217.23 278.06 216.05 278.15 214.89 278.15L214.89 278.15L207.47 278.15C207.47 266.13 207.47 259.45 207.47 258.12C207.47 256.45 207.04 255.7 207 255.43C206.69 254.75 205.98 254.41 204.87 254.41L204.87 254.41L204.13 254.41L204.13 253.67C209.91 253.67 213.12 253.67 213.77 253.67Z" id="cest6ilNm"></path><path d="M230.69 274.63C231.54 274.63 231.97 275.16 232.12 275.22C232.5 275.62 232.69 276.09 232.69 276.63C232.69 276.63 232.69 276.63 232.69 276.63C232.69 277.49 232.16 277.93 232.1 278.08C231.7 278.47 231.23 278.67 230.69 278.67C230.69 278.67 230.69 278.67 230.69 278.67C229.87 278.67 229.42 278.14 229.28 278.08C228.88 277.68 228.69 277.2 228.69 276.63C228.69 276.63 228.69 276.63 228.69 276.63C228.69 275.82 229.22 275.36 229.28 275.22C229.67 274.82 230.14 274.63 230.69 274.63C230.69 274.63 230.69 274.63 230.69 274.63Z" id="b4wpB5pdm2"></path><path d="M184 218.68C184 218.24 183.88 217.94 183.7 217.94C183.52 217.94 183.4 218.24 183.4 218.68C183.4 224.85 183.4 274.16 183.4 280.32C183.4 280.77 183.52 281.06 183.7 281.06C183.88 281.06 184 280.77 184 280.4C184 268.05 184 224.85 184 218.68Z" id="eypQZTTNB"></path><path d="M129.72 245.39C130.84 245 131.62 243.88 131.49 242.62C131.37 241.39 130.39 240.39 129.16 240.25C127.57 240.08 126.22 241.33 126.22 242.88C126.22 244.04 126.96 245.03 128 245.39C128 245.75 128 248.69 128 249.06C128 249.4 127.72 249.68 127.37 249.68C126.57 249.68 120.12 249.68 119.31 249.68C118.97 249.68 118.69 249.96 118.69 250.3C118.69 250.3 118.69 250.3 118.69 250.3C118.69 250.64 118.97 250.92 119.31 250.92C119.49 250.92 120.96 250.92 121.15 250.92C121.49 250.92 121.77 251.2 121.77 251.55C121.77 251.89 121.77 254.64 121.77 254.98C120.57 255.34 119.73 256.53 119.91 257.88C120.07 259.07 121.04 260.01 122.23 260.15C123.82 260.32 125.17 259.07 125.17 257.52C125.17 256.4 124.48 255.44 123.5 255.05C123.5 254.7 123.5 251.9 123.5 251.55C123.5 251.2 123.78 250.92 124.12 250.92C124.59 250.92 126.97 250.92 131.24 250.92C131.24 261.83 131.24 267.89 131.24 269.1C131.24 270.58 129.64 271.51 128.36 270.77C126.72 269.82 113.63 262.27 112 261.32C111.4 260.98 111.03 260.35 111.03 259.66C111.03 257.34 111.03 238.76 111.03 236.44C111.03 235.75 111.4 235.12 112 234.78C113.14 234.12 122.25 228.86 123.39 228.2C124.17 228.79 125.16 229.13 126.23 229.07C128.41 228.96 130.19 227.23 130.35 225.06C130.55 222.5 128.52 220.36 126.01 220.36C123.61 220.36 121.65 222.32 121.65 224.72C121.65 224.82 121.65 224.91 121.66 225.01C120.33 225.78 109.7 231.92 108.37 232.68C107.77 233.03 107.4 233.66 107.4 234.35C107.4 237.09 107.4 259.02 107.4 261.76C107.4 262.45 107.77 263.08 108.37 263.42C110.73 264.79 129.63 275.7 131.99 277.06C133.27 277.8 134.88 276.88 134.88 275.4C134.88 273.68 134.88 265.11 134.88 249.68C132.16 249.68 130.65 249.68 130.35 249.68C130 249.68 129.72 249.4 129.72 249.06C129.72 248.32 129.72 245.75 129.72 245.39ZM122.33 259.21C121.55 259.13 120.91 258.49 120.82 257.71C120.74 256.96 121.15 256.29 121.76 255.98C121.99 255.86 122.25 255.8 122.53 255.8C122.89 255.8 123.22 255.91 123.5 256.1C123.95 256.41 124.24 256.93 124.24 257.51C124.24 258.52 123.36 259.33 122.33 259.21ZM127.15 242.78C127.2 241.91 127.91 241.21 128.78 241.17C129.76 241.12 130.57 241.91 130.57 242.88C130.57 243.51 130.23 244.06 129.72 244.35C129.47 244.5 129.17 244.59 128.86 244.59C128.55 244.59 128.25 244.51 128 244.36C127.46 244.05 127.11 243.45 127.15 242.78ZM128.7 224.86C128.64 226.15 127.64 227.23 126.36 227.4C125.9 227.46 125.45 227.4 125.05 227.24C124.03 226.86 123.31 225.87 123.31 224.72C123.31 224.47 123.34 224.22 123.4 223.99C123.72 222.86 124.76 222.02 126 222.02C127.53 222.02 128.77 223.31 128.7 224.86Z" id="a2Xc3T4aU"></path><path d="M138.52 224.36C137.24 223.63 135.63 224.55 135.63 226.03C135.63 227.75 135.63 236.34 135.63 251.81L139.24 251.81C140.71 251.81 141.53 251.81 141.7 251.81C142.04 251.81 142.32 252.09 142.32 252.43C142.32 252.77 142.32 255.52 142.32 255.86C142.32 255.86 142.32 255.86 142.32 255.86C141.12 256.22 140.27 257.41 140.46 258.77C140.62 259.96 141.59 260.9 142.78 261.03C144.37 261.21 145.72 259.96 145.72 258.4C145.72 257.29 145.03 256.33 144.04 255.94C144.04 255.94 144.04 255.94 144.04 255.94C144.04 255.59 144.04 252.78 144.04 252.43C144.04 252.09 144.32 251.81 144.67 251.81C145.32 251.81 150.52 251.81 151.17 251.81C151.52 251.81 151.8 251.53 151.8 251.19C151.8 251.19 151.8 251.19 151.8 251.19C151.8 250.84 151.52 250.56 151.17 250.56C151.15 250.56 150.93 250.56 150.9 250.56C150.56 250.56 150.28 250.28 150.28 249.94C150.28 249.57 150.28 246.64 150.28 246.27C150.28 246.27 150.28 246.27 150.28 246.27C151.39 245.88 152.18 244.77 152.05 243.5C151.93 242.27 150.94 241.27 149.72 241.14C148.12 240.96 146.77 242.21 146.77 243.77C146.77 244.93 147.51 245.91 148.55 246.27C148.55 246.27 148.55 246.27 148.55 246.27C148.55 246.64 148.55 249.57 148.55 249.94C148.55 250.28 148.27 250.56 147.93 250.56C147.35 250.56 144.46 250.56 139.27 250.56C139.27 239.62 139.27 233.54 139.27 232.32C139.27 230.84 140.87 229.92 142.15 230.66C143.79 231.6 156.88 239.16 158.51 240.11C159.11 240.45 159.48 241.08 159.48 241.77C159.48 244.09 159.48 262.67 159.48 264.99C159.48 265.68 159.11 266.31 158.51 266.65C157.37 267.31 148.26 272.57 147.12 273.22C146.29 272.6 145.24 272.27 144.11 272.36C142 272.55 140.32 274.27 140.16 276.38C139.97 278.93 141.99 281.06 144.51 281.06C146.91 281.06 148.87 279.1 148.87 276.7C148.87 276.6 148.86 276.51 148.86 276.41C150.19 275.65 160.82 269.51 162.15 268.74C162.75 268.4 163.11 267.76 163.11 267.08C163.11 264.33 163.11 242.41 163.11 239.67C163.11 238.99 162.74 238.35 162.14 238C157.42 235.27 140.88 225.73 138.52 224.36ZM149.49 242.06C150.36 242.1 151.07 242.8 151.12 243.67C151.16 244.34 150.81 244.93 150.27 245.25C150.02 245.4 149.72 245.48 149.41 245.48C149.09 245.48 148.8 245.4 148.54 245.25C148.04 244.94 147.7 244.4 147.7 243.77C147.7 242.8 148.51 242.01 149.49 242.06ZM142.89 260.1C142.1 260.01 141.47 259.38 141.38 258.6C141.29 257.84 141.7 257.17 142.32 256.86C142.55 256.75 142.81 256.69 143.08 256.69C143.44 256.69 143.78 256.8 144.05 256.99C144.5 257.3 144.79 257.81 144.79 258.4C144.79 259.4 143.92 260.21 142.89 260.1ZM144.15 279.38C142.93 279.22 141.96 278.23 141.82 277.01C141.64 275.38 142.92 274.01 144.5 274.01C144.84 274.01 145.16 274.07 145.46 274.18C146.48 274.57 147.2 275.55 147.2 276.71C147.2 276.96 147.17 277.2 147.11 277.43C146.76 278.67 145.54 279.56 144.15 279.38Z" id="bBn7FHjoZ"></path></defs><g><g><g><use xlink:href="#bgaL2oMuU" opacity="1" fill="#ffffff" fill-opacity="1"></use><g><use xlink:href="#bgaL2oMuU" opacity="1" fill-opacity="0" stroke="#000000" stroke-width="1" stroke-opacity="0"></use></g></g><g><use xlink:href="#b17jldPfRW" opacity="1" fill="#ffffff" fill-opacity="1"></use><g><use xlink:href="#b17jldPfRW" opacity="1" fill-opacity="0" stroke="#000000" stroke-width="1" stroke-opacity="0"></use></g></g><g><use xlink:href="#cest6ilNm" opacity="1" fill="#ffffff" fill-opacity="1"></use><g><use xlink:href="#cest6ilNm" opacity="1" fill-opacity="0" stroke="#000000" stroke-width="1" stroke-opacity="0"></use></g></g><g><use xlink:href="#b4wpB5pdm2" opacity="1" fill="#ffffff" fill-opacity="1"></use><g><use xlink:href="#b4wpB5pdm2" opacity="1" fill-opacity="0" stroke="#000000" stroke-width="1" stroke-opacity="0"></use></g></g><g><use xlink:href="#eypQZTTNB" opacity="1" fill="#ffffff" fill-opacity="1"></use><g><use xlink:href="#eypQZTTNB" opacity="1" fill-opacity="0" stroke="#000000" stroke-width="0" stroke-opacity="0"></use></g></g><g><use xlink:href="#a2Xc3T4aU" opacity="1" fill="#ffffff" fill-opacity="1"></use><g><use xlink:href="#a2Xc3T4aU" opacity="1" fill-opacity="0" stroke="#000000" stroke-width="1" stroke-opacity="0"></use></g></g><g><use xlink:href="#bBn7FHjoZ" opacity="1" fill="#ffffff" fill-opacity="1"></use><g><use xlink:href="#bBn7FHjoZ" opacity="1" fill-opacity="0" stroke="#000000" stroke-width="1" stroke-opacity="0"></use></g></g></g></g></svg>