<?xml version="1.0" encoding="UTF-8" standalone="no"?>
<!DOCTYPE svg PUBLIC "-//W3C//DTD SVG 1.1//EN" "http://www.w3.org/Graphics/SVG/1.1/DTD/svg11.dtd">
<svg version="1.1" xmlns="http://www.w3.org/2000/svg" xmlns:xlink="http://www.w3.org/1999/xlink" preserveAspectRatio="xMidYMid meet" viewBox="-1 -1 28 28" width="22" height="22"><defs><path d="M22 12C22 17.51 17.51 22 12 22C6.49 22 2 17.51 2 12C2 6.49 6.49 2 12 2C17.51 2 22 6.49 22 12ZM0 12C0 18.63 5.37 24 12 24C18.63 24 24 18.63 24 12C24 5.37 18.63 0 12 0C5.37 0 0 5.37 0 12ZM13.01 15.54C12.99 14.58 13.36 14.07 14.04 14.74C14.78 15.48 14.93 16 15.84 16C16 16 17.28 16 17.44 16C17.84 16 18 15.87 18 15.66C18 15.23 17.29 14.47 16.69 13.91C15.84 13.13 15.81 13.11 16.53 12.17C17.43 11 18.61 9.5 17.57 9.5C17.37 9.5 15.78 9.5 15.58 9.5C15.19 9.5 15.16 9.72 15.03 10.04C14.53 11.22 13.58 12.74 13.22 12.5C12.85 12.26 13.02 11.3 13.05 9.87C13.06 9.5 13.06 9.24 12.48 9.1C12.16 9.03 11.86 9 11.58 9C10.44 9 9.65 9.48 10.1 9.56C10.88 9.71 10.81 11.41 10.62 12.14C10.31 13.42 9.11 11.13 8.61 9.99C8.49 9.71 8.45 9.5 8.02 9.5C7.86 9.5 6.56 9.5 6.39 9.5C6.15 9.5 6 9.58 6 9.76C6 10.06 7.48 13.12 8.89 14.64C10.27 16.13 11.63 16 12.58 16C12.89 16 13.01 15.79 13.01 15.54Z" id="baIHtj60i"></path></defs><g><g><use xlink:href="#baIHtj60i" opacity="1" fill="#f9f9f9" fill-opacity="1"></use><g><use xlink:href="#baIHtj60i" opacity="1" fill-opacity="0" stroke="#000000" stroke-width="1" stroke-opacity="0"></use></g></g></g></svg>